<svg width="24" height="24" viewBox="0 0 24 24" fill="none" xmlns="http://www.w3.org/2000/svg">
<g clip-path="url(#clip0_130_1455)">
<path d="M17.3665 2.31124C16.8378 2.11631 16.257 2.11631 15.7284 2.31124C15.1688 2.52633 14.7166 2.95341 14.4699 3.49981C14.3467 3.76411 14.2829 4.05218 14.2829 4.34379C14.2829 4.6354 14.3467 4.92347 14.4699 5.18777C14.5046 5.25922 14.5654 5.3146 14.6398 5.34249C14.7141 5.37037 14.7964 5.36862 14.8695 5.33759C14.9057 5.32142 14.9384 5.2982 14.9656 5.26928C14.9928 5.24037 15.014 5.20634 15.0279 5.16917C15.0419 5.132 15.0483 5.09243 15.0468 5.05275C15.0453 5.01308 15.036 4.9741 15.0193 4.93807C14.9589 4.75897 14.941 4.56827 14.967 4.38106C14.993 4.19384 15.0622 4.01524 15.1691 3.85937C15.3404 3.57284 15.614 3.36195 15.9347 3.26927C16.2554 3.17658 16.5993 3.209 16.897 3.35998C17.1602 3.47079 17.371 3.67804 17.4863 3.93928C17.6309 4.2332 17.6798 4.56501 17.6261 4.88813C17.5978 5.0416 17.539 5.18783 17.4532 5.3182C17.3675 5.44858 17.2565 5.56045 17.1267 5.64722C16.917 5.78705 16.5175 5.9169 16.2478 6.09668C16.1436 6.16679 16.0496 6.2508 15.9681 6.34638C15.8794 6.46587 15.8149 6.6016 15.7784 6.7459C15.7536 6.91814 15.7536 7.09303 15.7784 7.26527C15.7784 7.35534 15.8141 7.44171 15.8778 7.5054C15.9415 7.56908 16.0279 7.60486 16.118 7.60486C16.208 7.60486 16.2944 7.56908 16.3581 7.5054C16.4218 7.44171 16.4576 7.35534 16.4576 7.26527C16.4586 7.17461 16.4686 7.08427 16.4875 6.9956C16.5052 6.93329 16.5358 6.87543 16.5774 6.8258L17.5762 6.42628C17.8361 6.29831 18.0674 6.11907 18.2562 5.89936C18.445 5.67965 18.5875 5.42401 18.6749 5.14782C18.8139 4.60482 18.779 4.03188 18.575 3.5098C18.4654 3.2385 18.3017 2.99234 18.0939 2.78629C17.8862 2.58025 17.6387 2.41862 17.3665 2.31124Z" fill="black"/>
<path d="M7.58825 16.0847C7.58271 16.1758 7.61305 16.2655 7.67277 16.3345C7.7325 16.4036 7.81688 16.4466 7.90786 16.4542C7.95247 16.4569 7.99718 16.4508 8.03942 16.4362C8.08166 16.4216 8.1206 16.3988 8.154 16.3691C8.18741 16.3394 8.21462 16.3034 8.23409 16.2631C8.25355 16.2229 8.26488 16.1792 8.26743 16.1346C8.33734 15.8749 8.4572 15.4554 8.54709 14.946C8.57748 14.7743 8.59749 14.6008 8.60702 14.4267C8.61701 14.2537 8.61701 14.0803 8.60702 13.9073C8.56278 13.4957 8.48596 13.0882 8.3773 12.6888C8.3773 12.6093 8.34573 12.5331 8.28953 12.4769C8.23334 12.4207 8.15713 12.3891 8.07766 12.3891C7.99728 12.3917 7.92107 12.4255 7.86515 12.4833C7.80922 12.541 7.77798 12.6183 7.77802 12.6987C7.71809 13.0184 7.58825 13.4079 7.50834 13.8673C7.49849 14.037 7.49849 14.2071 7.50834 14.3767C7.49836 14.5464 7.49836 14.7165 7.50834 14.8861C7.49836 15.3855 7.56827 15.825 7.58825 16.0847Z" fill="black"/>
<path d="M15.9781 8.34398C15.8157 8.35741 15.6606 8.41728 15.5313 8.51646C15.402 8.61564 15.304 8.74993 15.249 8.9033C15.2287 8.99723 15.2289 9.09443 15.2495 9.18828C15.2701 9.28214 15.3107 9.37045 15.3685 9.44721C15.4263 9.52397 15.5 9.58738 15.5845 9.63313C15.669 9.67888 15.7624 9.70589 15.8582 9.71233C16.035 9.71098 16.2071 9.65576 16.3517 9.55404C16.4962 9.45232 16.6063 9.30893 16.6673 9.14302C16.6783 9.04456 16.669 8.94488 16.6397 8.85023C16.6104 8.75558 16.5619 8.668 16.4972 8.59298C16.4325 8.51795 16.353 8.45711 16.2637 8.41426C16.1743 8.37141 16.0771 8.34749 15.9781 8.34398Z" fill="black"/>
<path d="M7.58825 18.7015C7.77594 18.7617 7.97907 18.7523 8.16035 18.6748C8.34162 18.5974 8.48888 18.4571 8.57509 18.2799C8.6613 18.1026 8.68068 17.9001 8.62967 17.7097C8.57866 17.5193 8.46068 17.3537 8.29739 17.2433C7.53831 16.7738 6.46959 18.252 7.58825 18.7015Z" fill="black"/>
<path d="M23.8586 1.24253C23.8476 1.0306 23.7628 0.829187 23.6189 0.673221C23.0292 0.392154 22.3845 0.245466 21.7312 0.243738C19.4639 0.00402732 15.6186 0.0739431 15.0992 0.0739431C13.8007 0.0739431 11.8631 0.18381 10.4048 0.33363C9.62929 0.361176 8.86488 0.526911 8.14756 0.82304C8.05796 0.919271 8.0019 1.0419 7.98775 1.17262C7.94254 1.37621 7.91579 1.58347 7.90785 1.79187C7.82794 2.79067 7.76801 5.06793 7.78799 7.0855C7.76935 8.28395 7.83611 9.48221 7.98775 10.6712C8.01436 10.9009 8.10426 11.1188 8.24744 11.3004C8.34327 11.3907 8.45993 11.4559 8.58703 11.4902C8.99201 11.5651 9.40398 11.5952 9.81555 11.5801C11.1539 11.5801 13.2514 11.4303 14.1903 11.4303H14.43C14.6597 11.7599 14.9194 12.4291 15.3389 13.0283C15.6008 13.4362 15.9019 13.8175 16.2378 14.167C16.987 14.8145 17.9117 15.2248 18.8946 15.3455C19.1246 15.3924 19.3592 15.4125 19.5938 15.4055C19.682 15.4017 19.7665 15.3695 19.8349 15.3137C19.9033 15.2579 19.9519 15.1815 19.9733 15.0958C19.9812 15.0431 19.9782 14.9893 19.9645 14.9377C19.9507 14.8862 19.9265 14.838 19.8934 14.7962C19.4583 14.2762 19.1627 13.6541 19.0344 12.9884C18.9458 12.5299 18.9458 12.0586 19.0344 11.6001C19.2042 10.9109 19.7736 11.3803 22.5802 11.2305C22.965 11.2428 23.3445 11.1383 23.6689 10.9309C23.7351 10.8551 23.7768 10.7611 23.7887 10.6612C23.7887 10.5513 23.7887 10.3316 23.8486 10.022C23.9186 8.77346 23.9985 6.02677 23.9985 3.91931C24.0093 3.02498 23.9626 2.13087 23.8586 1.24253ZM23.0296 10.0619V10.3416C22.8868 10.3938 22.7398 10.4339 22.5902 10.4614C21.6912 10.5413 20.243 10.4614 19.4639 10.5613C18.4651 10.6612 18.2654 11.68 18.3453 12.6388C18.4001 13.3372 18.5972 14.017 18.9246 14.6364C18.1343 14.5146 17.3957 14.1679 16.7971 13.6376C16.5085 13.3308 16.2509 12.9962 16.0281 12.6388C15.5387 11.8398 15.269 11.1007 15.0293 10.791C14.9514 10.6971 14.8407 10.6364 14.7196 10.6212C14.5101 10.6089 14.3 10.6089 14.0904 10.6212C13.0916 10.6212 11.0141 10.7011 9.73564 10.6212C9.54604 10.6326 9.35593 10.6326 9.16633 10.6212C9.16633 10.3815 8.96657 9.83219 8.94659 9.29284C8.86669 7.29524 8.94659 3.97924 9.0265 2.36119V1.78189H9.13637C9.6058 1.68201 10.3449 1.6021 11.134 1.5222C12.4424 1.41233 13.9805 1.32244 15.0692 1.31245C15.4587 1.31245 17.8758 1.24253 19.9833 1.31245C20.8411 1.3222 21.6978 1.37554 22.5502 1.47226C22.6556 1.50251 22.759 1.5392 22.8598 1.58213C22.8666 1.71188 22.8666 1.8419 22.8598 1.97166C22.9297 2.6808 22.9597 3.80944 22.9797 5.01799C23.0995 6.84578 23.0796 9.04314 23.0296 10.0619Z" fill="black"/>
<path d="M15.3589 15.9848C15.269 15.9701 15.1769 15.9912 15.1023 16.0434C15.0277 16.0957 14.9764 16.175 14.9593 16.2644C14.8019 17.1544 14.3849 17.9779 13.7608 18.6316C13.1387 19.2697 12.3495 19.7197 11.4835 19.93C11.1377 20.0057 10.7874 20.0591 10.4348 20.0898C9.59581 20.1597 8.80676 20.1497 8.80676 20.1497C8.73893 20.1494 8.67181 20.1635 8.60983 20.1911C8.54785 20.2186 8.49241 20.259 8.4472 20.3096C8.24744 20.5193 7.88787 21.0886 7.4484 21.598C7.26637 21.8371 7.05112 22.049 6.80917 22.2272C6.36567 22.4695 5.88162 22.6286 5.38089 22.6967C5.50858 22.3771 5.58932 22.0406 5.6206 21.6979C5.67389 21.2368 5.58687 20.7703 5.3709 20.3595C5.25834 20.1764 5.08516 20.0386 4.88149 19.97C3.73557 19.7161 2.66284 19.2036 1.74527 18.4718C1.136 17.8425 0.916269 16.9136 1.00616 15.3056C1.12764 13.9301 1.72037 12.6388 2.68414 11.65C3.66061 10.6299 4.92575 9.93282 6.30977 9.65239C6.38871 9.63553 6.45795 9.58851 6.50273 9.52134C6.54751 9.45418 6.56428 9.37218 6.54948 9.29283C6.54987 9.24988 6.54101 9.20735 6.52352 9.16812C6.50603 9.12889 6.48031 9.09388 6.4481 9.06547C6.4159 9.03705 6.37796 9.01589 6.33686 9.00342C6.29576 8.99095 6.25246 8.98746 6.20989 8.99319C4.67735 9.25028 3.25943 9.96795 2.14479 11.0507C0.989042 12.1454 0.247917 13.6065 0.0473153 15.1857C-0.132468 17.1833 0.207123 18.3719 0.946232 19.1809C1.95191 20.0441 3.1457 20.6598 4.43203 20.9787C4.43871 21.0452 4.43871 21.1121 4.43203 21.1785C4.46225 21.4772 4.43513 21.7789 4.35213 22.0674C4.30073 22.3932 4.17794 22.7036 3.99256 22.9763C3.90514 23.0625 3.85036 23.1763 3.83761 23.2984C3.82486 23.4205 3.85492 23.5432 3.92265 23.6455C3.96806 23.7198 4.02911 23.7833 4.10155 23.8316C4.174 23.8799 4.2561 23.9119 4.34214 23.9252C4.47148 23.9414 4.60233 23.9414 4.73167 23.9252C5.68926 23.8607 6.62058 23.5844 7.45839 23.1162C7.71122 22.9331 7.93948 22.7182 8.13757 22.4769C8.5271 22.0075 8.86669 21.4781 9.13637 21.1286C9.44599 21.1286 10.0153 21.0786 10.6146 21.0087C11.0057 20.9641 11.3929 20.8907 11.7732 20.789C12.7853 20.5048 13.6983 19.9445 14.41 19.1709C15.1098 18.3942 15.5649 17.4284 15.7184 16.3943C15.7256 16.343 15.7217 16.2909 15.7068 16.2413C15.692 16.1917 15.6667 16.1459 15.6325 16.1071C15.5984 16.0682 15.5563 16.0371 15.5091 16.016C15.4618 15.9949 15.4106 15.9843 15.3589 15.9848Z" fill="black"/>
<path fill-rule="evenodd" clip-rule="evenodd" d="M1.4154 5.04097C2.0396 5.23647 2.5682 5.65797 2.8978 6.22287C3.0581 6.57347 2.8978 6.80387 3.2384 7.22457C3.2928 7.29627 3.3641 7.35367 3.4459 7.39147C3.5276 7.42927 3.6174 7.44647 3.7074 7.44157C3.7974 7.43657 3.8848 7.40967 3.9619 7.36307C4.039 7.31657 4.1036 7.25177 4.1499 7.17447C4.3402 6.91407 4.21 6.75377 4.2701 6.55347C4.7008 5.84227 4.55051 5.99257 5.04131 5.72207C5.53011 5.53627 5.95461 5.21267 6.26331 4.79057C6.31111 4.69607 6.3386 4.59257 6.3441 4.48677C6.3496 4.38097 6.333 4.27517 6.2953 4.17617C6.2576 4.07727 6.1996 3.98717 6.1251 3.91187C6.0506 3.83657 5.9612 3.77767 5.8627 3.73887C5.6403 3.67327 5.4352 3.55937 5.2621 3.40527C5.0889 3.25107 4.952 3.06067 4.861 2.84737L4.5906 2.07617C4.5906 1.92587 4.5906 1.53527 4.5405 1.45507C4.512 1.33547 4.447 1.22767 4.3544 1.14677C4.2618 1.06587 4.1462 1.01597 4.0239 1.00377C3.9015 0.991674 3.7784 1.01797 3.6717 1.07917C3.565 1.14027 3.4801 1.23317 3.4287 1.34497C2.7876 2.75727 2.9479 3.60867 1.2852 4.00927C1.1946 4.02867 1.115 4.08207 1.0628 4.15857C1.0106 4.23497 0.989804 4.32857 1.0047 4.41997C1.0047 4.41997 1.2251 4.97087 1.4154 5.04097ZM3.038 4.03937C3.2675 3.84427 3.4607 3.61037 3.609 3.34817C3.8105 3.81987 4.1232 4.23577 4.5205 4.56017C2.8177 5.56187 4.1198 5.77217 3.028 4.98087C1.9362 4.18957 2.0064 4.89077 3.038 3.96927V4.03937Z" fill="black"/>
</g>
<defs>
<clipPath id="clip0_130_1455">
<rect width="24" height="24" fill="white"/>
</clipPath>
</defs>
</svg>
