<svg xmlns="http://www.w3.org/2000/svg" width="189" height="54" viewBox="0 0 189 54" fill="none">
  <path d="M1.02246 11.6664V11.6038C1.02246 5.25927 5.77042 0 12.3654 0C16.4351 0 18.8664 1.44004 21.11 3.55836L19.3777 5.4158C17.489 3.62097 15.3707 2.33746 12.3236 2.33746C7.36698 2.33746 3.6521 6.37583 3.6521 11.5308V11.5934C3.6521 16.7796 7.39829 20.8493 12.3341 20.8493C15.4124 20.8493 17.4264 19.6597 19.576 17.6144L21.2456 19.2527C18.9082 21.6215 16.3411 23.1972 12.2715 23.1972C5.80172 23.1972 1.02246 18.1048 1.02246 11.6664Z" fill="#A4A7AE"/>
  <path d="M23.3955 11.6664V11.6038C23.3955 5.4158 28.0391 0 34.8637 0C41.6882 0 46.2692 5.35319 46.2692 11.5308V11.5934C46.2692 17.7814 41.6256 23.1972 34.801 23.1972C27.9765 23.1972 23.3955 17.844 23.3955 11.6664ZM43.65 11.6664V11.6038C43.65 6.51148 39.9351 2.34789 34.801 2.34789C29.667 2.34789 26.0251 6.44887 26.0251 11.5412V11.6038C26.0251 16.6961 29.74 20.8597 34.8741 20.8597C40.0081 20.8597 43.65 16.7587 43.65 11.6664Z" fill="#A4A7AE"/>
  <path d="M50.9863 0.385742H53.5221V20.4733H66.1485V22.8107H50.9968V0.385742H50.9863Z" fill="#A4A7AE"/>
  <path d="M67.9014 11.6664V11.6038C67.9014 5.4158 72.545 0 79.3695 0C86.194 0 90.775 5.35319 90.775 11.5308V11.5934C90.775 17.7814 86.1314 23.1972 79.3069 23.1972C72.4824 23.1972 67.9014 17.844 67.9014 11.6664ZM88.1558 11.6664V11.6038C88.1558 6.51148 84.441 2.34789 79.3069 2.34789C74.1728 2.34789 70.531 6.44887 70.531 11.5412V11.6038C70.531 16.6961 74.2459 20.8597 79.3695 20.8597C84.4931 20.8597 88.1454 16.7587 88.1454 11.6664H88.1558Z" fill="#A4A7AE"/>
  <path d="M95.4912 0.385742H105.133C107.888 0.385742 110.1 1.22055 111.509 2.62928C112.594 3.71453 113.241 5.29023 113.241 7.05375V7.11636C113.241 10.8312 110.674 13.0122 107.158 13.6487L114.045 22.8107H110.935L104.434 14.0974H98.0269V22.8107H95.4912V0.385742ZM104.914 11.8226C108.274 11.8226 110.685 10.0904 110.685 7.21028V7.14767C110.685 4.39281 108.566 2.7232 104.945 2.7232H98.0269V11.8226H104.914Z" fill="#A4A7AE"/>
  <path d="M142.699 0.385742H150.484C157.538 0.385742 162.401 5.22762 162.401 11.5408V11.6034C162.401 17.9167 157.527 22.8211 150.484 22.8211H142.699V0.385742ZM145.235 2.7232V20.4733H150.494C156.171 20.4733 159.781 16.6227 159.781 11.6661V11.6034C159.781 6.63635 156.16 2.7232 150.494 2.7232H145.235Z" fill="#A4A7AE"/>
  <path d="M166.126 11.6664V11.6038C166.126 5.4158 170.77 0 177.594 0C184.419 0 189 5.35319 189 11.5308V11.5934C189 17.7814 184.356 23.1972 177.532 23.1972C170.707 23.1972 166.126 17.844 166.126 11.6664ZM186.38 11.6664V11.6038C186.38 6.51148 182.666 2.34789 177.532 2.34789C172.397 2.34789 168.756 6.44887 168.756 11.5412V11.6038C168.756 16.6961 172.471 20.8597 177.594 20.8597C182.718 20.8597 186.37 16.7587 186.37 11.6664H186.38Z" fill="#A4A7AE"/>
  <path d="M0 49.3788L2.91138 45.883C4.92535 47.5526 7.04367 48.6066 9.6107 48.6066C11.6247 48.6066 12.8456 47.8031 12.8456 46.4882V46.4256C12.8456 45.1734 12.0734 44.5369 8.32719 43.5769C3.8088 42.4186 0.897416 41.1768 0.897416 36.721V36.6584C0.897416 32.5887 4.16359 29.8965 8.74459 29.8965C12.0108 29.8965 14.7969 30.9191 17.0718 32.7453L14.5047 36.4601C12.5221 35.0827 10.5603 34.2479 8.67154 34.2479C6.7828 34.2479 5.79146 35.114 5.79146 36.1993V36.2619C5.79146 37.7332 6.75149 38.2132 10.6333 39.2046C15.183 40.3942 17.7501 42.022 17.7501 45.9352V45.9978C17.7501 50.4536 14.3587 52.9476 9.51678 52.9476C6.12539 52.9476 2.69225 51.758 0 49.3579L0 49.3788Z" fill="#A4A7AE"/>
  <path d="M23.3018 43.034V30.2197H28.2375V42.9088C28.2375 46.561 30.0637 48.4498 33.0794 48.4498C36.0952 48.4498 37.9213 46.6237 37.9213 43.0653V30.2197H42.8571V42.8775C42.8571 49.6707 39.0483 52.9995 33.0168 52.9995C26.9853 52.9995 23.3122 49.6394 23.3122 43.034H23.3018Z" fill="#A4A7AE"/>
  <path d="M48.4814 41.4896V41.427C48.4814 35.0512 53.292 29.8232 60.1792 29.8232C64.4054 29.8232 66.9411 31.232 69.0281 33.2877L65.8871 36.9087C64.1549 35.3434 62.3914 34.3729 60.1479 34.3729C56.3704 34.3729 53.6468 37.5139 53.6468 41.354V41.4166C53.6468 45.2671 56.3077 48.4707 60.1479 48.4707C62.7149 48.4707 64.2801 47.4481 66.0437 45.8411L69.1846 49.0133C66.8785 51.476 64.3115 53.0204 59.9913 53.0204C53.3859 53.0204 48.4919 47.9281 48.4919 41.4896H48.4814Z" fill="#A4A7AE"/>
  <path d="M73.0977 41.4896V41.427C73.0977 35.0512 77.9082 29.8232 84.7954 29.8232C89.0216 29.8232 91.5573 31.232 93.6443 33.2877L90.5034 36.9087C88.7711 35.3434 87.0076 34.3729 84.7641 34.3729C80.9866 34.3729 78.263 37.5139 78.263 41.354V41.4166C78.263 45.2671 80.924 48.4707 84.7641 48.4707C87.3311 48.4707 88.8963 47.4481 90.6599 45.8411L93.8008 49.0133C91.4947 51.476 88.9277 53.0204 84.6075 53.0204C78.0021 53.0204 73.1081 47.9281 73.1081 41.4896H73.0977Z" fill="#A4A7AE"/>
  <path d="M99.3415 30.2197H116.257V34.6129H104.236V39.1626H114.806V43.5557H104.236V48.262H116.413V52.6551H99.3311V30.2302L99.3415 30.2197Z" fill="#A4A7AE"/>
  <path d="M122.414 30.2197H139.329V34.6129H127.308V39.1626H137.879V43.5557H127.308V48.262H139.486V52.6551H122.403V30.2302L122.414 30.2197Z" fill="#A4A7AE"/>
  <path d="M145.485 30.2197H154.23C161.284 30.2197 166.147 35.0616 166.147 41.3748V41.4374C166.147 47.7506 161.274 52.6551 154.23 52.6551H145.485V30.2302V30.2197ZM150.421 34.6755V48.1994H154.23C158.268 48.1994 160.992 45.4758 160.992 41.5V41.4374C160.992 37.4617 158.268 34.6755 154.23 34.6755H150.421Z" fill="#A4A7AE"/>
  <path d="M170.29 49.3788L173.201 45.883C175.215 47.5526 177.334 48.6066 179.901 48.6066C181.915 48.6066 183.136 47.8031 183.136 46.4882V46.4256C183.136 45.1734 182.363 44.5369 178.617 43.5769C174.099 42.4186 171.187 41.1768 171.187 36.721V36.6584C171.187 32.5887 174.454 29.8965 179.035 29.8965C182.301 29.8965 185.087 30.9191 187.362 32.7453L184.795 36.4601C182.812 35.0827 180.85 34.2479 178.962 34.2479C177.073 34.2479 176.082 35.114 176.082 36.1993V36.2619C176.082 37.7332 177.042 38.2132 180.923 39.2046C185.473 40.3942 188.04 42.022 188.04 45.9352V45.9978C188.04 50.4536 184.649 52.9476 179.807 52.9476C176.415 52.9476 172.982 51.758 170.29 49.3579V49.3788Z" fill="#A4A7AE"/>
  <path d="M138.776 22.8419L135.03 14.7652L132.745 17.4678L128.372 12.626L123.989 17.4678L121.704 14.7652L117.958 22.8419H138.776Z" fill="#A4A7AE"/>
  <path d="M124.72 7.83671H128.466H129.082H132.076L128.393 0.198242L124.72 7.83671Z" fill="#A4A7AE"/>
</svg>
