<?xml version="1.0" encoding="UTF-8"?> <svg xmlns="http://www.w3.org/2000/svg" width="183" height="91.429" viewBox="0 0 183 91.429"><g id="Group_3" data-name="Group 3" transform="translate(-38.586 -36.406)"><path id="Path_1" data-name="Path 1" d="M218.309,106.753a20.066,20.066,0,0,0-.164-2.694,6.864,6.864,0,0,0-.574-2.041,2.992,2.992,0,0,0-1.14-1.306,3.459,3.459,0,0,0-1.877-.46,4.17,4.17,0,0,0-1.991.425,4.155,4.155,0,0,0-1.844,2.059,6.017,6.017,0,0,0-.343,1.241,13.381,13.381,0,0,0-.181,1.649c-.032.623-.046,1.36-.046,2.206a15.294,15.294,0,0,0,.162,2.224,6.731,6.731,0,0,0,.621,2.075,3.966,3.966,0,0,0,1.289,1.519,4.487,4.487,0,0,0,4.326.065,3.145,3.145,0,0,0,1.172-1.507,7.951,7.951,0,0,0,.492-2.365c.065-.927.1-1.96.1-3.092m-13.482,16.18h2.513V100.677h-2.513v-.446h5.25v2.729l.072.016a5,5,0,0,1,1.616-2.273,4.537,4.537,0,0,1,2.925-.9,5.945,5.945,0,0,1,2.647.607,7.472,7.472,0,0,1,3.694,3.935,7.224,7.224,0,0,1,.555,2.8,7.313,7.313,0,0,1-.571,2.857,8.178,8.178,0,0,1-1.551,2.4,7.625,7.625,0,0,1-2.272,1.664,6.286,6.286,0,0,1-2.726.619,4.311,4.311,0,0,1-1.884-.376,4.508,4.508,0,0,1-1.254-.875,4.112,4.112,0,0,1-.753-1.043,6.294,6.294,0,0,1-.358-.859h-.068v11.4h2.513v.458h-7.835Zm-5.9-30.307a1.734,1.734,0,1,1,.5,1.22,1.666,1.666,0,0,1-.5-1.22m-2.115,21.156h2.516v-13.1h-2.516v-.446h5.322v13.551h2.516v.458h-7.838Zm-18.447,0h2.515V91.135h-2.515v-.458h5.32v12.853l.072-.013a6.571,6.571,0,0,1,.556-1.052,5.17,5.17,0,0,1,1.061-1.207,6.428,6.428,0,0,1,1.632-.977,6.039,6.039,0,0,1,2.3-.407,5.6,5.6,0,0,1,3.517,1.045,3.94,3.94,0,0,1,1.353,3.332v9.531H196.7v.458h-7.838v-.458h2.516V103.231a3.416,3.416,0,0,0-.607-2.092,2.182,2.182,0,0,0-1.88-.816,4.55,4.55,0,0,0-1.993.455,5.3,5.3,0,0,0-1.672,1.274,6.031,6.031,0,0,0-1.131,1.93,6.992,6.992,0,0,0-.408,2.415v7.385H186.2v.458h-7.837Zm-10.619-4.118h.361a12.32,12.32,0,0,0,.585,1.584,5.847,5.847,0,0,0,.968,1.476,4.823,4.823,0,0,0,1.484,1.093,4.9,4.9,0,0,0,2.123.423,2.977,2.977,0,0,0,1.862-.637,2.469,2.469,0,0,0,.817-2.074,2.092,2.092,0,0,0-.64-1.745,4.88,4.88,0,0,0-1.483-.8l-2.546-.879c-.325-.11-.681-.247-1.061-.413a3.858,3.858,0,0,1-1.063-.685,3.307,3.307,0,0,1-.8-1.129,4.224,4.224,0,0,1-.31-1.759,3.922,3.922,0,0,1,.364-1.7,4.341,4.341,0,0,1,.982-1.373,4.447,4.447,0,0,1,1.486-.918,5.289,5.289,0,0,1,1.879-.329,5,5,0,0,1,1.162.113c.292.077.549.158.765.231s.415.153.589.226a1.5,1.5,0,0,0,.621.116.584.584,0,0,0,.524-.258h.358v3.723h-.358a13.363,13.363,0,0,0-.524-1.39,5.777,5.777,0,0,0-.7-1.2,2.831,2.831,0,0,0-1.015-.82,3.252,3.252,0,0,0-1.421-.295,3.782,3.782,0,0,0-2.434.7,2.3,2.3,0,0,0-.862,1.878,1.846,1.846,0,0,0,.732,1.586,7.8,7.8,0,0,0,2.167.994l2.383.784a6.88,6.88,0,0,1,2.512,1.437,3.145,3.145,0,0,1,.978,2.415,4.561,4.561,0,0,1-.342,1.728,4.2,4.2,0,0,1-1.015,1.489,5.242,5.242,0,0,1-1.632,1.028,5.815,5.815,0,0,1-2.206.392,5.919,5.919,0,0,1-1.321-.143c-.408-.1-.776-.2-1.113-.309s-.649-.213-.931-.308a2.5,2.5,0,0,0-.784-.146.783.783,0,0,0-.524.146,1.3,1.3,0,0,0-.26.312h-.361Zm-13.265,4.118H157v-13.1h-2.519v-.446h5.257v3.3h.064a7.233,7.233,0,0,1,.427-1.106,4.889,4.889,0,0,1,.82-1.193,4.643,4.643,0,0,1,1.26-.961,3.712,3.712,0,0,1,1.783-.395,3.208,3.208,0,0,1,1.307.248,2.8,2.8,0,0,1,.912.619,2.261,2.261,0,0,1,.524.863,3.025,3.025,0,0,1,.166.981,1.711,1.711,0,0,1-.491,1.438,1.884,1.884,0,0,1-1.141.359c-.956,0-1.436-.309-1.436-.921a1.341,1.341,0,0,1,.068-.476,3.649,3.649,0,0,1,.145-.361,2.475,2.475,0,0,0,.144-.407,2.373,2.373,0,0,0,.069-.655c0-.7-.382-1.049-1.148-1.049a2.078,2.078,0,0,0-1.114.388,4.164,4.164,0,0,0-1.1,1.147,7.1,7.1,0,0,0-.847,1.814,7.841,7.841,0,0,0-.351,2.435v7.486h2.846v.458h-8.167Zm-5.709-7.538-.064-.015c-.044.282-.4.563-1.08.849l-2.452.981a3.544,3.544,0,0,0-1.6,1.19,3.138,3.138,0,0,0-.556,1.9,5.3,5.3,0,0,0,.1,1.014,2.555,2.555,0,0,0,.358.932,1.967,1.967,0,0,0,.736.664,2.527,2.527,0,0,0,1.225.26,3.066,3.066,0,0,0,1.75-.451,2.994,2.994,0,0,0,1.014-1.138,4.821,4.821,0,0,0,.457-1.484,10.337,10.337,0,0,0,.114-1.447Zm5.717,7.618a4.444,4.444,0,0,1-1.016.576,3.687,3.687,0,0,1-1.437.249,3.227,3.227,0,0,1-2.275-.67,3.569,3.569,0,0,1-.962-1.877h-.062c-.086.193-.207.443-.358.731a2.943,2.943,0,0,1-.7.853,4.051,4.051,0,0,1-1.259.686,6.084,6.084,0,0,1-2,.277,6.334,6.334,0,0,1-2.189-.309,3.53,3.53,0,0,1-1.27-.771,2.164,2.164,0,0,1-.6-1.024,4.128,4.128,0,0,1-.148-1.064,3.252,3.252,0,0,1,.458-1.831,3.4,3.4,0,0,1,1.187-1.092,8.133,8.133,0,0,1,1.636-.671c.6-.171,1.2-.357,1.812-.557.72-.237,1.314-.444,1.78-.615a3.133,3.133,0,0,0,1.093-.637,1.985,1.985,0,0,0,.542-.95,6.718,6.718,0,0,0,.145-1.55,8.742,8.742,0,0,0-.1-1.406,3.05,3.05,0,0,0-.356-1.06,1.692,1.692,0,0,0-.748-.67,3.155,3.155,0,0,0-1.3-.228,3.715,3.715,0,0,0-1.769.375,1.291,1.291,0,0,0-.7,1.226,6.57,6.57,0,0,0,.094,1.1,5.411,5.411,0,0,1,.1.8,1.029,1.029,0,0,1-.329.77,1.331,1.331,0,0,1-.95.308c-.722,0-1.166-.129-1.343-.39a1.826,1.826,0,0,1-.257-1.012,3.017,3.017,0,0,1,.325-1.372,3.5,3.5,0,0,1,.96-1.157,4.8,4.8,0,0,1,1.6-.8,7.648,7.648,0,0,1,2.2-.293,7.238,7.238,0,0,1,2.509.378,4.39,4.39,0,0,1,1.632,1.01,3.678,3.678,0,0,1,.884,1.432,5.51,5.51,0,0,1,.258,1.68v8.128a1.965,1.965,0,0,0,.3,1.268,1.075,1.075,0,0,0,.849.324,2.418,2.418,0,0,0,.751-.127,2.733,2.733,0,0,0,.755-.392Zm-22.754-.08h2.515V91.135h-2.515v-.458h5.322v23.105h2.513v.458h-7.835Zm-12.047-6.539a15.122,15.122,0,0,0,.361,3.693,5.723,5.723,0,0,0,.945,2.11,2.751,2.751,0,0,0,1.372.966,6.191,6.191,0,0,0,3.328,0,2.757,2.757,0,0,0,1.369-.966,5.705,5.705,0,0,0,.944-2.11,15.129,15.129,0,0,0,.36-3.693,17.238,17.238,0,0,0-.262-3.278,6.158,6.158,0,0,0-.8-2.157,3.1,3.1,0,0,0-1.356-1.2,5.361,5.361,0,0,0-3.851,0,3.128,3.128,0,0,0-1.353,1.2,6.137,6.137,0,0,0-.8,2.157,17.315,17.315,0,0,0-.263,3.278m-3.276,0a6.4,6.4,0,0,1,.7-2.968,8.284,8.284,0,0,1,4.252-3.915,6.653,6.653,0,0,1,5.329,0,8.251,8.251,0,0,1,4.249,3.915,6.407,6.407,0,0,1,.7,2.968,6.57,6.57,0,0,1-.653,2.89,8.193,8.193,0,0,1-1.717,2.37,8.3,8.3,0,0,1-2.439,1.6,7.027,7.027,0,0,1-5.621,0,8.272,8.272,0,0,1-2.436-1.6,8.05,8.05,0,0,1-1.715-2.37,6.542,6.542,0,0,1-.655-2.89m-17.674,6.539h2.512V91.135H98.739v-.458h5.32v12.853l.073-.013a6.488,6.488,0,0,1,.556-1.052,5.146,5.146,0,0,1,1.061-1.207,6.409,6.409,0,0,1,1.632-.977,6.018,6.018,0,0,1,2.3-.407,5.6,5.6,0,0,1,3.517,1.045,3.947,3.947,0,0,1,1.354,3.332v9.531h2.513v.458h-7.833v-.458h2.515V103.231a3.416,3.416,0,0,0-.607-2.092,2.184,2.184,0,0,0-1.881-.816,4.569,4.569,0,0,0-2,.455,5.3,5.3,0,0,0-1.668,1.274,5.912,5.912,0,0,0-1.129,1.93,6.919,6.919,0,0,0-.411,2.415v7.385h2.515v.458H98.739Zm-.322-3.135a10.418,10.418,0,0,1-.373,1.027,4.784,4.784,0,0,1-.882,1.339,5.2,5.2,0,0,1-1.635,1.168,6.056,6.056,0,0,1-2.661.506,9.187,9.187,0,0,1-2.585-.392,7.264,7.264,0,0,1-2.451-1.256,6.54,6.54,0,0,1-1.82-2.268,7.691,7.691,0,0,1-.7-3.462,7.24,7.24,0,0,1,.607-2.964A7.575,7.575,0,0,1,92.931,99.8a8.048,8.048,0,0,1,1.81.213,5.964,5.964,0,0,1,1.7.656,4,4,0,0,1,1.274,1.137,2.87,2.87,0,0,1,.507,1.712,1.524,1.524,0,0,1-.444,1.127,1.709,1.709,0,0,1-1.258.437,2.424,2.424,0,0,1-1.06-.241.858.858,0,0,1-.507-.835,3.44,3.44,0,0,1,.232-1.113,3.433,3.433,0,0,0,.227-1.073,1.27,1.27,0,0,0-.751-1.163,3.582,3.582,0,0,0-1.731-.409,6.319,6.319,0,0,0-1.486.181,2.69,2.69,0,0,0-1.407.9,5.52,5.52,0,0,0-1.043,2.158,14.974,14.974,0,0,0-.409,3.919,19.085,19.085,0,0,0,.179,2.647,6.974,6.974,0,0,0,.657,2.174,3.7,3.7,0,0,0,1.306,1.468,3.9,3.9,0,0,0,2.169.541,5.778,5.778,0,0,0,2.369-.423,4.36,4.36,0,0,0,1.469-1.035,4.269,4.269,0,0,0,.8-1.224q.26-.62.394-1.011Zm-30.979-3.436H67.8a13.378,13.378,0,0,0,.932,2.973,8.646,8.646,0,0,0,1.259,1.991,5.521,5.521,0,0,0,1.439,1.205,6.059,6.059,0,0,0,1.518.622,7.212,7.212,0,0,0,1.469.229c.472.022.913.031,1.323.031a6.7,6.7,0,0,0,2.848-.521,4.955,4.955,0,0,0,1.76-1.324,4.63,4.63,0,0,0,.915-1.731,6.281,6.281,0,0,0,.265-1.71,4.2,4.2,0,0,0-.425-1.964,4.728,4.728,0,0,0-1.08-1.387A6.118,6.118,0,0,0,78.6,104.7a9.852,9.852,0,0,0-1.452-.556L73.394,103a9.6,9.6,0,0,1-4-2.155,4.815,4.815,0,0,1-1.36-3.589,6.994,6.994,0,0,1,.525-2.729,6.416,6.416,0,0,1,1.467-2.172,6.751,6.751,0,0,1,2.269-1.434,7.762,7.762,0,0,1,2.89-.527,7.949,7.949,0,0,1,1.914.2,8.873,8.873,0,0,1,1.317.442c.373.166.7.313,1,.443a2.227,2.227,0,0,0,.9.2.981.981,0,0,0,.573-.116,2.269,2.269,0,0,0,.408-.57h.471V96.9h-.4a9.564,9.564,0,0,0-.67-2.271A7.079,7.079,0,0,0,79.469,92.7a5.84,5.84,0,0,0-1.813-1.343,5.611,5.611,0,0,0-2.468-.515,7.61,7.61,0,0,0-1.726.216,5.4,5.4,0,0,0-1.765.735,4.336,4.336,0,0,0-1.354,1.37,3.948,3.948,0,0,0-.54,2.157,3.461,3.461,0,0,0,.428,1.784,4.118,4.118,0,0,0,1.09,1.241,6.625,6.625,0,0,0,1.505.846c.556.233,1.115.433,1.68.608l3.954,1.244q.624.195,1.568.523a7,7,0,0,1,1.848.978,5.692,5.692,0,0,1,1.534,1.731,5.334,5.334,0,0,1,.638,2.746,7.675,7.675,0,0,1-.572,2.927,7.272,7.272,0,0,1-1.65,2.448,7.949,7.949,0,0,1-2.614,1.7,8.99,8.99,0,0,1-3.464.638c-.457,0-.861,0-1.211-.019a8.461,8.461,0,0,1-.975-.08c-.308-.045-.614-.1-.921-.147a10.339,10.339,0,0,1-1.011-.249c-.434-.129-.9-.283-1.4-.458a3.954,3.954,0,0,0-1.307-.263.892.892,0,0,0-.671.2,1.6,1.6,0,0,0-.307.524h-.5Zm124.856,14.636h.445l3.17,2.835a4.048,4.048,0,0,1,.483.533,5.95,5.95,0,0,1-.067-1.044v-2.324h.649v4.238h-.394l-3.26-2.95a1.882,1.882,0,0,1-.423-.475,7.992,7.992,0,0,1,.044.929v2.5h-.647Zm-10.837.574h-3.5v3.073h3.5Zm-3.217-.574h2.932c.761,0,.982.224.982,1.005v2.229c0,.781-.22,1-.982,1H178.24c-.755,0-.989-.217-.989-1v-2.229c0-.788.234-1.005.989-1.005m-11.831,0h.708v4.238h-.708Zm-11.127,4.238h-.7v-3.665h-1.939v-.574h4.589v.574h-1.945ZM142.676,124.5l-1.146-2.164-1.14,2.164Zm-1.505-2.651h.754l2.357,4.238H143.5l-.539-1.043h-2.866l-.542,1.043h-.693Zm-15.4.574v3.07h1.527c1.264,0,1.881-.35,1.881-1.549,0-1.152-.624-1.521-1.881-1.521Zm3.254-.246a2.269,2.269,0,0,1,0,3.579,2.982,2.982,0,0,1-1.629.331h-2.328v-4.238h2.328a3.043,3.043,0,0,1,1.629.328m-18.824-.328h.441l3.167,2.835a3.9,3.9,0,0,1,.487.533,5.77,5.77,0,0,1-.069-1.044v-2.324h.651v4.238h-.395l-3.256-2.95a1.906,1.906,0,0,1-.426-.475,7.552,7.552,0,0,1,.05.929v2.5H110.2Zm-13.984,3.644H99.3v-3.644h.7v3.234c0,.781-.221,1-.985,1H96.5c-.755,0-.993-.217-.993-1v-3.234h.707Zm-11.542-3.07h-3.5v3.073h3.5Zm-3.216-.574h2.928c.764,0,.986.224.986,1.005v2.229c0,.781-.221,1-.986,1H81.455c-.754,0-.994-.217-.994-1v-2.229c0-.788.241-1.005.994-1.005m-14.156,0h4.03v.574H68v1.389h1.9v.567H68v1.708h-.7Zm55.393-35.488h2.516v-13.1h-2.516v-.446h5.253v3.3h.068A6.823,6.823,0,0,1,128.437,75a4.806,4.806,0,0,1,.823-1.193,4.551,4.551,0,0,1,1.257-.961,3.709,3.709,0,0,1,1.781-.394,3.292,3.292,0,0,1,1.307.245,2.857,2.857,0,0,1,.917.622,2.309,2.309,0,0,1,.523.865,3.041,3.041,0,0,1,.164.976,1.7,1.7,0,0,1-.492,1.437,1.847,1.847,0,0,1-1.137.361c-.96,0-1.437-.309-1.437-.919a1.373,1.373,0,0,1,.065-.477c.04-.12.09-.237.145-.362a2.735,2.735,0,0,0,.148-.4,2.55,2.55,0,0,0,.065-.656c0-.7-.379-1.052-1.143-1.052a2.039,2.039,0,0,0-1.117.394,4.174,4.174,0,0,0-1.1,1.142,7.323,7.323,0,0,0-.852,1.814,7.951,7.951,0,0,0-.344,2.435v7.485h2.846v.458h-8.167Zm-4.1-8.105a5.607,5.607,0,0,0,.071-.85v-.819a6.6,6.6,0,0,0-.212-1.825,2.942,2.942,0,0,0-.589-1.148,2.1,2.1,0,0,0-.909-.6,3.664,3.664,0,0,0-1.159-.178,3.416,3.416,0,0,0-1.823.44,3.221,3.221,0,0,0-1.141,1.195,6.177,6.177,0,0,0-.638,1.728,13.674,13.674,0,0,0-.276,2.061Zm-6.72.448c0,.221-.005.442-.015.673s-.013.514-.013.867a20.623,20.623,0,0,0,.134,2.259,6.76,6.76,0,0,0,.572,2.124,3.922,3.922,0,0,0,1.305,1.568,3.869,3.869,0,0,0,2.3.623,5.729,5.729,0,0,0,2.368-.424A4.319,4.319,0,0,0,120,85.361a4.48,4.48,0,0,0,.8-1.224c.172-.413.3-.751.391-1.012l.491.1a9.761,9.761,0,0,1-.375,1.027,4.744,4.744,0,0,1-.884,1.337,5.159,5.159,0,0,1-1.633,1.169,6.056,6.056,0,0,1-2.661.506,8.527,8.527,0,0,1-3.023-.523,6.893,6.893,0,0,1-2.4-1.5,6.759,6.759,0,0,1-1.574-2.335,7.861,7.861,0,0,1-.558-3.02,7.1,7.1,0,0,1,.571-2.787,7.838,7.838,0,0,1,1.57-2.4,8.047,8.047,0,0,1,2.338-1.686,6.509,6.509,0,0,1,4.839-.309,5.689,5.689,0,0,1,3.447,3,6.585,6.585,0,0,1,.609,3Zm-18.13-5.894h7.906v.446l-2.679.011,4.214,10.257,4.378-10.268h-2.678v-.446h4.965v.446h-1.764L101.912,87.9,95.965,73.254H93.744ZM77.465,86.359h2.517v-13.1H77.465v-.446H82.72V76.3l.067.006c.133-.283.325-.644.575-1.074a5.69,5.69,0,0,1,1.031-1.277,5.592,5.592,0,0,1,4.019-1.5A5.562,5.562,0,0,1,91.927,73.5a3.929,3.929,0,0,1,1.355,3.328v9.533H95.8v.457H87.961v-.457h2.517V75.808a3.441,3.441,0,0,0-.6-2.091,2.193,2.193,0,0,0-1.884-.817,4.547,4.547,0,0,0-2,.457,5.224,5.224,0,0,0-1.668,1.275A6.134,6.134,0,0,0,83.2,76.556a6.929,6.929,0,0,0-.412,2.42v7.382h2.519v.457h-7.84ZM73.44,78.253a5.607,5.607,0,0,0,.071-.85v-.819A6.509,6.509,0,0,0,73.3,74.76a2.955,2.955,0,0,0-.587-1.148,2.1,2.1,0,0,0-.909-.6,3.673,3.673,0,0,0-1.159-.178,3.422,3.422,0,0,0-1.825.44,3.237,3.237,0,0,0-1.141,1.195,6.242,6.242,0,0,0-.635,1.728,13.538,13.538,0,0,0-.276,2.061Zm-6.721.448c0,.221,0,.442-.012.673s-.014.514-.014.867a21.122,21.122,0,0,0,.13,2.259,6.848,6.848,0,0,0,.574,2.124A3.942,3.942,0,0,0,68.7,86.192a3.861,3.861,0,0,0,2.3.623,5.712,5.712,0,0,0,2.368-.424,4.334,4.334,0,0,0,1.472-1.031,4.51,4.51,0,0,0,.8-1.224c.171-.413.3-.751.392-1.012l.49.1a9.818,9.818,0,0,1-.376,1.027,4.809,4.809,0,0,1-.883,1.337,5.184,5.184,0,0,1-1.633,1.169,6.066,6.066,0,0,1-2.663.506,8.5,8.5,0,0,1-3.02-.523,6.863,6.863,0,0,1-2.4-1.5,6.738,6.738,0,0,1-1.577-2.335,7.9,7.9,0,0,1-.557-3.02,7.067,7.067,0,0,1,.574-2.787,7.838,7.838,0,0,1,1.57-2.4A7.966,7.966,0,0,1,67.9,73.015a6.509,6.509,0,0,1,4.839-.309,5.722,5.722,0,0,1,3.45,3,6.644,6.644,0,0,1,.6,3ZM45.487,86.359c.373.042.8.076,1.293.1s1.032.035,1.616.035a20.8,20.8,0,0,0,2.206-.117,8.31,8.31,0,0,0,2.09-.49,6.618,6.618,0,0,0,1.861-1.077A6.935,6.935,0,0,0,56.1,82.96a12.18,12.18,0,0,0,1.452-3.611,18.508,18.508,0,0,0,.408-4.03,20.844,20.844,0,0,0-.487-4.69,9.451,9.451,0,0,0-1.618-3.593,7.372,7.372,0,0,0-2.989-2.3,11.455,11.455,0,0,0-4.606-.814c-.545,0-1.039.01-1.485.031s-.878.044-1.293.067Zm-6.9,0h3.625V64.017H38.586v-.458h6.076c.3,0,.607,0,.911-.016s.612-.027.916-.055c.308,0,.612,0,.916-.011s.612-.013.917-.013c.652,0,1.233.013,1.749.032s.985.063,1.434.118a11.327,11.327,0,0,1,1.277.227c.4.1.832.225,1.289.378a11.767,11.767,0,0,1,3.448,1.747A9.971,9.971,0,0,1,59.9,68.5a10.792,10.792,0,0,1,1.369,3.136,14.05,14.05,0,0,1,.442,3.563,13.25,13.25,0,0,1-.524,3.873,10.8,10.8,0,0,1-1.438,3.036,10.441,10.441,0,0,1-2.137,2.287,11.282,11.282,0,0,1-2.632,1.551A10.2,10.2,0,0,1,53.5,86.5a10.529,10.529,0,0,1-1.438.294q-.735.094-1.614.133t-2.027.029c-.327,0-.677,0-1.045-.015s-.742-.032-1.112-.053-.737-.039-1.1-.054-.7-.018-1.031-.018H38.586Z" transform="translate(0 1.75)" fill="#A4A7AE"></path><path id="Path_2" data-name="Path 2" d="M129.156,56.427c7.978,8.618,15.622,20.861,18.968,33.552q.077-1.26.076-2.561c0-11.732-4.465-25.255-11.175-29.831a.138.138,0,0,1-.046-.175.141.141,0,0,1,.172-.068c9.535,3.57,11.86,17.558,11.868,26.534a28.121,28.121,0,0,1-.682,7.011l0,.01,0,.005,0,.011-.007.013-.007.007,0,.006-.012.011-.007.005-.006.006-.011.01h0a.141.141,0,0,1-.054.015H148.2a.125.125,0,0,1-.1-.054.139.139,0,0,1-.027-.042c-3.281-10.509-12.353-24.478-21.289-34.14a.134.134,0,0,1-.032-.141.148.148,0,0,1,.115-.092c.7-.071,1.46-.144,2.1-.144.024,0,.065,0,.106,0" transform="translate(5.701 1.291)" fill="#A4A7AE"></path><path id="Path_3" data-name="Path 3" d="M157.5,91.492a.116.116,0,0,1-.1-.123c.849-10.626,8.1-34.829,21.849-42.928a.113.113,0,0,1,.155.034.107.107,0,0,1-.025.152l-.012.01v0l-.012.006c-8.717,6.948-18.314,26.985-21.73,42.758a.118.118,0,0,1-.115.092l-.015,0m6.86-16.261a.119.119,0,0,1-.012-.153,15.081,15.081,0,0,1,11.995-5.791,8.7,8.7,0,0,1,4.243.9.112.112,0,0,1,.05.133.123.123,0,0,1-.119.085c-.578-.054-1.181-.085-1.8-.085a23.039,23.039,0,0,0-14.2,4.913.12.12,0,0,1-.155-.006m.177-.016-.094-.069Z" transform="translate(7.683 0.777)" fill="#A4A7AE"></path><path id="Path_4" data-name="Path 4" d="M151.975,92.226a.135.135,0,0,1-.053-.184l0-.007,0,0c2.9-5.4,4.661-15,4.661-21.41a18.226,18.226,0,0,0-.484-4.693c-.325-1.149-.8-1.744-1.389-1.735-.531-.009-1.282.491-2.192,1.7l-.112-.08.109.083a3.777,3.777,0,0,1-2.78,1.8c-2.019-.034-3.448-2.882-3.455-7.732,0-5.487,1.866-13.615,7.116-23.439.006-.015.014-.03.02-.042l0-.005a.137.137,0,1,1,.242.13v0h0l-.021.045c-3.509,7.119-5.733,17.218-5.733,23.227,0,3.115.635,5.008,1.762,5.012.574.007,1.387-.468,2.393-1.593a4.065,4.065,0,0,1,2.737-1.668c2.159.057,3.126,3.631,3.141,8.514,0,6.535-1.842,15.532-5.788,22.03a.141.141,0,0,1-.185.047" transform="translate(6.964 0)" fill="#A4A7AE"></path></g></svg> 