<svg xmlns="http://www.w3.org/2000/svg" width="432" height="84" viewBox="0 0 432 84" fill="none"><g clip-path="url(#clip0_234_557)"><path d="M391.952 83.9686C398.15 83.9686 401.699 80.8657 401.699 76.4933C401.699 72.1209 398.072 70.4127 392.661 69.2686C388.544 68.3754 386.62 67.6701 386.62 65.6798C386.62 63.9716 388.387 62.4671 391.005 62.4671C393.624 62.4671 396.179 63.5015 398.434 65.3507L400.99 62.0754C398.387 59.9754 395.28 58.6589 391.163 58.6589C385.69 58.6589 381.825 61.7933 381.825 66.0716C381.825 70.6634 385.563 72.1209 390.926 73.2963C395.09 74.2209 396.936 74.8948 396.936 76.9321C396.936 78.6716 395.28 80.1604 392.062 80.1604C388.655 80.1604 385.91 78.8754 383.513 76.8537L380.8 80.0194C383.671 82.5582 387.44 83.9686 391.904 83.9686M358.007 79.5179V59.1134H353.323V83.5769H371.336V79.5179H358.007ZM329.205 79.5179V59.1134H324.521V83.5769H342.534V79.5179H329.205ZM307.422 83.5769H312.107V59.1134H307.422V83.5769ZM274.566 83.5769H279.283V76.603L282.8 73.0455L291.381 83.5925H297.201L286.065 69.9268L296.46 59.1291H290.687L279.314 71.0865V59.1291H274.598V83.5925H274.582L274.566 83.5769ZM253.02 83.9686C259.219 83.9686 262.768 80.8657 262.768 76.4933C262.768 72.1209 259.14 70.4127 253.73 69.2686C249.613 68.3754 247.689 67.6701 247.689 65.6798C247.689 63.9716 249.455 62.4671 252.074 62.4671C254.692 62.4671 257.247 63.5015 259.503 65.3507L262.058 62.0754C259.456 59.9754 256.348 58.6589 252.231 58.6589C246.758 58.6589 242.894 61.7933 242.894 66.0716C242.894 70.6634 246.632 72.1209 251.995 73.2963C256.159 74.2209 258.004 74.8948 258.004 76.9321C258.004 78.6716 256.348 80.1604 253.13 80.1604C249.723 80.1604 246.979 78.8754 244.581 76.8537L241.868 80.0194C244.739 82.5582 248.509 83.9686 252.973 83.9686H253.004H253.02ZM221 63.1724V59.1134H201.457V83.5769H221V79.5179H206.189V73.1552H219.596V69.0962H206.189V63.188H221V63.1567V63.1724ZM177.119 79.5179V59.1134H172.434V83.5769H190.447V79.5179H177.119ZM144.279 79.7216V72.7477H151.866C154.421 72.7477 156.251 74.2052 156.251 76.2425C156.251 78.2798 154.437 79.7373 151.866 79.7373H144.279V79.7216ZM144.279 69.1276V62.9686H151.187C153.49 62.9686 155.162 64.2537 155.162 66.0716C155.162 67.8895 153.506 69.1276 151.187 69.1276H144.279ZM139.594 83.5769H152.812C157.654 83.5769 161.077 80.8343 161.077 76.9164C161.077 74.2522 159.311 71.9955 156.314 70.6477C158.617 69.4724 159.989 67.7328 159.989 65.241C159.989 61.6836 156.803 59.1134 152.323 59.1134H139.594V83.5769ZM110.618 75.3179L115.193 65.0373L119.767 75.3179H110.618ZM123.411 83.5769H128.632L117.795 59.1134H112.543L101.706 83.5769H106.959L108.915 79.1574H121.455L123.411 83.5769ZM75.917 63.2037H81.9582C85.176 63.2037 87.4 64.7395 87.4 67.2313C87.4 69.7231 85.176 71.2589 81.9582 71.2589H75.917V63.2037ZM92.4317 83.5769L85.9331 74.8791C89.6714 73.7821 92.1951 70.9298 92.1951 67.2313C92.1951 62.4671 88.031 59.1134 82.4788 59.1134H71.1851V83.5769H75.9013V75.3492H80.933L87.053 83.5769H92.4317ZM47.1307 84C53.8502 84 58.5664 79.5179 58.5664 73.1395V59.1134H53.8817V72.9985C53.8817 77.0574 51.074 79.9724 47.1307 79.9724C43.1874 79.9724 40.4113 77.0574 40.4113 72.9985V59.1134H35.695V73.1395C35.695 79.5022 40.4586 84 47.1465 84H47.1307ZM4.71623 79.5492V63.141H9.62173C15.0951 63.141 18.9595 66.5261 18.9595 71.3216C18.9595 76.1171 15.1109 79.5492 9.62173 79.5492H4.71623ZM0 83.5769H9.14853C17.7292 83.5769 23.7704 78.4992 23.7704 71.3373C23.7704 64.1754 17.7292 59.1291 9.14853 59.1291H0V83.5925V83.5769Z" fill="#A4A7AE"></path><path d="M9.33782 23.3351V8.61942H19.8271C25.3951 8.61942 29.2595 11.4246 29.2595 15.9694C29.2595 20.5142 25.3951 23.3351 19.8271 23.3351H9.33782ZM1.15146 45.8709H9.33782V30.8261H20.7419C30.3794 30.8261 37.5879 24.6985 37.5879 15.9851C37.5879 7.27165 30.3794 1.14404 20.7419 1.14404H1.15146V45.8866V45.8709Z" fill="#A4A7AE"></path><path d="M81.6585 45.871H90.6967L71.8791 1.12842H62.7621L43.9445 45.871H53.0615C59.6232 30.309 59.292 31.0769 67.3521 11.9419C75.3492 30.9045 75.1284 30.4501 81.6428 45.871" fill="#A4A7AE"></path><path d="M107.953 45.871H116.076V8.55678H130.509V1.12842H93.5359V8.55678H107.953V45.871Z" fill="#A4A7AE"></path><path d="M171.551 1.12842V19.3545H149.074V1.12842H140.872V45.871H149.074V26.7829H171.551V45.871H179.737V1.12842H171.551Z" fill="#A4A7AE"></path><path d="M209.06 46.5761C219.801 46.5761 225.969 40.9186 225.969 32.8947C225.969 24.8708 219.675 21.7522 210.306 19.6679C203.161 18.038 199.817 16.7373 199.817 13.0858C199.817 9.9671 202.892 7.22457 207.419 7.22457C211.946 7.22457 216.394 9.10516 220.338 12.5059L224.786 6.51934C220.259 2.67979 214.896 0.266357 207.751 0.266357C198.239 0.266357 191.567 6.00218 191.567 13.8067C191.567 22.2067 198.05 24.8708 207.356 27.0335C214.565 28.7261 217.782 29.9641 217.782 33.6783C217.782 36.8753 214.896 39.6022 209.328 39.6022C203.429 39.6022 198.649 37.2514 194.517 33.5529L189.8 39.3514C194.785 43.9746 201.331 46.5761 209.076 46.5761" fill="#A4A7AE"></path><path d="M237.389 45.871H245.591V15.9695L260.402 43.2538L275.276 15.9695V45.871H283.399V1.12842H275.276L260.402 28.4127L245.591 1.12842H237.389V45.871Z" fill="#A4A7AE"></path><path d="M304.977 1.12842H296.854V45.871H304.977V1.12842Z" fill="#A4A7AE"></path><path d="M329.915 45.871H338.038V8.55678H352.455V1.12842H315.498V8.55678H329.915V45.871Z" fill="#A4A7AE"></path><path d="M393.513 1.12842V19.3545H371.036V1.12842H362.834V45.871H371.036V26.7829H393.513V45.871H401.699V1.12842H393.513Z" fill="#A4A7AE"></path><path fill-rule="evenodd" clip-rule="evenodd" d="M60.191 45.8709H74.4817L67.3364 28.8986L60.191 45.8709Z" fill="#A4A7AE"></path><path d="M411.021 13.4619V1.58284H406.558V0H417.299V1.58284H412.82V13.4619H411.021Z" fill="#A4A7AE"></path><path d="M419.082 13.462V4.66406e-05H421.779L424.981 9.52841C425.281 10.4217 425.486 11.0799 425.628 11.5187C425.785 11.0329 426.022 10.312 426.353 9.35602L429.602 -0.015625H432.016V13.4463H430.281V2.19408L426.337 13.462H424.713L420.801 2.00602V13.462H419.066H419.082Z" fill="#A4A7AE"></path></g><defs><clipPath id="clip0_234_557"><rect width="432" height="84" fill="#A4A7AE"></rect></clipPath></defs></svg>